HIERARCHY
ROOT Hips
{
    OFFSET 0.000 95.729 0.000
    CHANNELS 6 Xposition Yposition Zposition Yrotation Xrotation Zrotation
    JOINT RightUpLeg
    {
        OFFSET -9.625 -1.639 0.000
        CHANNELS 6 Xposition Yposition Zposition Yrotation Xrotation Zrotation
        JOINT RightLeg
        {
            OFFSET 0.000 -41.481 0.000
            CHANNELS 6 Xposition Yposition Zposition Yrotation Xrotation Zrotation
            JOINT RightFoot
            {
                OFFSET 0.000 -43.120 0.000
                CHANNELS 6 Xposition Yposition Zposition Yrotation Xrotation Zrotation
                End Site
                {
                    OFFSET 0.000 -7.850 17.850
                }
            }
        }
    }
    JOINT LeftUpLeg
    {
        OFFSET 9.625 -1.639 0.000
        CHANNELS 6 Xposition Yposition Zposition Yrotation Xrotation Zrotation
        JOINT LeftLeg
        {
            OFFSET 0.000 -43.120 0.000
            CHANNELS 6 Xposition Yposition Zposition Yrotation Xrotation Zrotation
            JOINT LeftFoot
            {
                OFFSET 0.000 -43.120 0.000
                CHANNELS 6 Xposition Yposition Zposition Yrotation Xrotation Zrotation
                End Site
                {
                    OFFSET 0.000 -7.850 17.850
                }
            }
        }
    }
    JOINT Spine
    {
        OFFSET 0.000 16.395 0.000
        CHANNELS 6 Xposition Yposition Zposition Yrotation Xrotation Zrotation
        JOINT Spine1
        {
            OFFSET 0.000 10.023 0.000
            CHANNELS 6 Xposition Yposition Zposition Yrotation Xrotation Zrotation
            JOINT Spine2
            {
                OFFSET 0.000 10.437 0.000
                CHANNELS 6 Xposition Yposition Zposition Yrotation Xrotation Zrotation
                JOINT Spine3
                {
                    OFFSET 0.000 10.023 0.000
                    CHANNELS 6 Xposition Yposition Zposition Yrotation Xrotation Zrotation
                    JOINT Neck
                    {
                        OFFSET 0.000 10.713 0.000
                        CHANNELS 6 Xposition Yposition Zposition Yrotation Xrotation Zrotation
                        JOINT Head
                        {
                            OFFSET 0.000 9.720 0.000
                            CHANNELS 6 Xposition Yposition Zposition Yrotation Xrotation Zrotation
                            End Site
                            {
                                OFFSET 0.000 16.450 0.000
                            }
                        }
                    }
                    JOINT RightShoulder
                    {
                        OFFSET -3.275 7.142 0.000
                        CHANNELS 6 Xposition Yposition Zposition Yrotation Xrotation Zrotation
                        JOINT RightArm
                        {
                            OFFSET -13.100 0.000 0.000
                            CHANNELS 6 Xposition Yposition Zposition Yrotation Xrotation Zrotation
                            JOINT RightForeArm
                            {
                                OFFSET -27.250 0.000 0.000
                                CHANNELS 6 Xposition Yposition Zposition Yrotation Xrotation Zrotation
                                JOINT RightHand
                                {
                                    OFFSET -26.750 0.000 0.000
                                    CHANNELS 6 Xposition Yposition Zposition Yrotation Xrotation Zrotation
                                    JOINT RightHandThumb1
                                    {
                                        OFFSET -2.560 0.196 3.210
                                        CHANNELS 6 Xposition Yposition Zposition Yrotation Xrotation Zrotation
                                        JOINT RightHandThumb2
                                        {
                                            OFFSET -3.788 0.000 0.000
                                            CHANNELS 6 Xposition Yposition Zposition Yrotation Xrotation Zrotation
                                            JOINT RightHandThumb3
                                            {
                                                OFFSET -2.631 0.000 0.000
                                                CHANNELS 6 Xposition Yposition Zposition Yrotation Xrotation Zrotation
                                                End Site
                                                {
                                                    OFFSET -2.256 0.000 0.000
                                                }
                                            }
                                        }
                                    }
                                    JOINT RightInHandIndex
                                    {
                                        OFFSET -3.316 0.523 2.035
                                        CHANNELS 6 Xposition Yposition Zposition Yrotation Xrotation Zrotation
                                        JOINT RightHandIndex1
                                        {
                                            OFFSET -5.366 -0.094 1.028
                                            CHANNELS 6 Xposition Yposition Zposition Yrotation Xrotation Zrotation
                                            JOINT RightHandIndex2
                                            {
                                                OFFSET -3.723 0.000 0.000
                                                CHANNELS 6 Xposition Yposition Zposition Yrotation Xrotation Zrotation
                                                JOINT RightHandIndex3
                                                {
                                                    OFFSET -2.111 0.000 0.000
                                                    CHANNELS 6 Xposition Yposition Zposition Yrotation Xrotation Zrotation
                                                    End Site
                                                    {
                                                        OFFSET -1.857 0.000 0.000
                                                    }
                                                }
                                            }
                                        }
                                    }
                                    JOINT RightInHandMiddle
                                    {
                                        OFFSET -3.479 0.532 0.778
                                        CHANNELS 6 Xposition Yposition Zposition Yrotation Xrotation Zrotation
                                        JOINT RightHandMiddle1
                                        {
                                            OFFSET -5.322 -0.086 0.323
                                            CHANNELS 6 Xposition Yposition Zposition Yrotation Xrotation Zrotation
                                            JOINT RightHandMiddle2
                                            {
                                                OFFSET -4.062 0.000 0.000
                                                CHANNELS 6 Xposition Yposition Zposition Yrotation Xrotation Zrotation
                                                JOINT RightHandMiddle3
                                                {
                                                    OFFSET -2.547 0.000 0.000
                                                    CHANNELS 6 Xposition Yposition Zposition Yrotation Xrotation Zrotation
                                                    End Site
                                                    {
                                                        OFFSET -2.031 0.000 0.000
                                                    }
                                                }
                                            }
                                        }
                                    }
                                    JOINT RightInHandRing
                                    {
                                        OFFSET -3.461 0.553 -0.133
                                        CHANNELS 6 Xposition Yposition Zposition Yrotation Xrotation Zrotation
                                        JOINT RightHandRing1
                                        {
                                            OFFSET -4.767 -0.023 -0.493
                                            CHANNELS 6 Xposition Yposition Zposition Yrotation Xrotation Zrotation
                                            JOINT RightHandRing2
                                            {
                                                OFFSET -3.541 0.000 0.000
                                                CHANNELS 6 Xposition Yposition Zposition Yrotation Xrotation Zrotation
                                                JOINT RightHandRing3
                                                {
                                                    OFFSET -2.456 0.000 0.000
                                                    CHANNELS 6 Xposition Yposition Zposition Yrotation Xrotation Zrotation
                                                    End Site
                                                    {
                                                        OFFSET -1.910 0.000 0.000
                                                    }
                                                }
                                            }
                                        }
                                    }
                                    JOINT RightInHandPinky
                                    {
                                        OFFSET -3.251 0.483 -1.236
                                        CHANNELS 6 Xposition Yposition Zposition Yrotation Xrotation Zrotation
                                        JOINT RightHandPinky1
                                        {
                                            OFFSET -4.259 -0.023 -1.122
                                            CHANNELS 6 Xposition Yposition Zposition Yrotation Xrotation Zrotation
                                            JOINT RightHandPinky2
                                            {
                                                OFFSET -2.835 0.000 0.000
                                                CHANNELS 6 Xposition Yposition Zposition Yrotation Xrotation Zrotation
                                                JOINT RightHandPinky3
                                                {
                                                    OFFSET -1.792 0.000 0.000
                                                    CHANNELS 6 Xposition Yposition Zposition Yrotation Xrotation Zrotation
                                                    End Site
                                                    {
                                                        OFFSET -1.692 0.000 0.000
                                                    }
                                                }
                                            }
                                        }
                                    }
                                }
                            }
                        }
                    }
                    JOINT LeftShoulder
                    {
                        OFFSET 3.275 7.142 0.000
                        CHANNELS 6 Xposition Yposition Zposition Yrotation Xrotation Zrotation
                        JOINT LeftArm
                        {
                            OFFSET 13.100 0.000 0.000
                            CHANNELS 6 Xposition Yposition Zposition Yrotation Xrotation Zrotation
                            JOINT LeftForeArm
                            {
                                OFFSET 27.250 0.000 0.000
                                CHANNELS 6 Xposition Yposition Zposition Yrotation Xrotation Zrotation
                                JOINT LeftHand
                                {
                                    OFFSET 26.750 0.000 0.000
                                    CHANNELS 6 Xposition Yposition Zposition Yrotation Xrotation Zrotation
                                    JOINT LeftHandThumb1
                                    {
                                        OFFSET 2.560 0.196 3.210
                                        CHANNELS 6 Xposition Yposition Zposition Yrotation Xrotation Zrotation
                                        JOINT LeftHandThumb2
                                        {
                                            OFFSET 3.788 0.000 0.000
                                            CHANNELS 6 Xposition Yposition Zposition Yrotation Xrotation Zrotation
                                            JOINT LeftHandThumb3
                                            {
                                                OFFSET 2.631 0.000 0.000
                                                CHANNELS 6 Xposition Yposition Zposition Yrotation Xrotation Zrotation
                                                End Site
                                                {
                                                    OFFSET 2.256 0.000 0.000
                                                }
                                            }
                                        }
                                    }
                                    JOINT LeftInHandIndex
                                    {
                                        OFFSET 3.316 0.523 2.035
                                        CHANNELS 6 Xposition Yposition Zposition Yrotation Xrotation Zrotation
                                        JOINT LeftHandIndex1
                                        {
                                            OFFSET 5.366 -0.094 1.028
                                            CHANNELS 6 Xposition Yposition Zposition Yrotation Xrotation Zrotation
                                            JOINT LeftHandIndex2
                                            {
                                                OFFSET 3.723 0.000 0.000
                                                CHANNELS 6 Xposition Yposition Zposition Yrotation Xrotation Zrotation
                                                JOINT LeftHandIndex3
                                                {
                                                    OFFSET 2.111 0.000 0.000
                                                    CHANNELS 6 Xposition Yposition Zposition Yrotation Xrotation Zrotation
                                                    End Site
                                                    {
                                                        OFFSET 1.857 0.000 0.000
                                                    }
                                                }
                                            }
                                        }
                                    }
                                    JOINT LeftInHandMiddle
                                    {
                                        OFFSET 3.479 0.532 0.778
                                        CHANNELS 6 Xposition Yposition Zposition Yrotation Xrotation Zrotation
                                        JOINT LeftHandMiddle1
                                        {
                                            OFFSET 5.322 -0.086 0.323
                                            CHANNELS 6 Xposition Yposition Zposition Yrotation Xrotation Zrotation
                                            JOINT LeftHandMiddle2
                                            {
                                                OFFSET 4.062 0.000 0.000
                                                CHANNELS 6 Xposition Yposition Zposition Yrotation Xrotation Zrotation
                                                JOINT LeftHandMiddle3
                                                {
                                                    OFFSET 2.547 0.000 0.000
                                                    CHANNELS 6 Xposition Yposition Zposition Yrotation Xrotation Zrotation
                                                    End Site
                                                    {
                                                        OFFSET 2.031 0.000 0.000
                                                    }
                                                }
                                            }
                                        }
                                    }
                                    JOINT LeftInHandRing
                                    {
                                        OFFSET 3.461 0.553 -0.133
                                        CHANNELS 6 Xposition Yposition Zposition Yrotation Xrotation Zrotation
                                        JOINT LeftHandRing1
                                        {
                                            OFFSET 4.767 -0.023 -0.493
                                            CHANNELS 6 Xposition Yposition Zposition Yrotation Xrotation Zrotation
                                            JOINT LeftHandRing2
                                            {
                                                OFFSET 3.541 0.000 0.000
                                                CHANNELS 6 Xposition Yposition Zposition Yrotation Xrotation Zrotation
                                                JOINT LeftHandRing3
                                                {
                                                    OFFSET 2.456 0.000 0.000
                                                    CHANNELS 6 Xposition Yposition Zposition Yrotation Xrotation Zrotation
                                                    End Site
                                                    {
                                                        OFFSET 1.910 0.000 0.000
                                                    }
                                                }
                                            }
                                        }
                                    }
                                    JOINT LeftInHandPinky
                                    {
                                        OFFSET 3.251 0.483 -1.236
                                        CHANNELS 6 Xposition Yposition Zposition Yrotation Xrotation Zrotation
                                        JOINT LeftHandPinky1
                                        {
                                            OFFSET 4.259 -0.023 -1.122
                                            CHANNELS 6 Xposition Yposition Zposition Yrotation Xrotation Zrotation
                                            JOINT LeftHandPinky2
                                            {
                                                OFFSET 2.835 0.000 0.000
                                                CHANNELS 6 Xposition Yposition Zposition Yrotation Xrotation Zrotation
                                                JOINT LeftHandPinky3
                                                {
                                                    OFFSET 1.792 0.000 0.000
                                                    CHANNELS 6 Xposition Yposition Zposition Yrotation Xrotation Zrotation
                                                    End Site
                                                    {
                                                        OFFSET 1.692 0.000 0.000
                                                    }
                                                }
                                            }
                                        }
                                    }
                                }
                            }
                        }
                    }
                }
            }
        }
    }
}
MOTION

Frames: 2
Frame Time: 0.017
8.50 96.55 1.27 -31.21 8.11 -4.24 -9.57 -1.62 0.10 0.74 -8.92 -2.64 0.08 -41.47 -0.01 -5.47 4.79 -2.11 -0.07 -44.22 0.48 8.21 -4.27 9.81 9.70 -1.64 0.00 0.72 -8.43 4.76 0.10 -43.12 -0.19 3.80 -2.76 -0.87 -0.22 -42.01 0.28 -1.76 1.99 -0.44 0.01 16.39 0.05 4.47 6.44 -1.38 0.05 10.02 0.00 1.11 1.60 -0.39 0.11 10.44 -0.00 1.83 2.66 -0.64 0.12 10.02 -0.01 -0.00 1.74 -0.13 0.10 10.76 0.08 -0.01 1.77 -0.14 0.07 9.73 0.05 -2.01 33.53 -3.27 -3.20 7.15 -0.30 2.06 -8.54 8.83 -13.18 -0.08 -0.75 12.64 -16.22 74.04 -27.06 -0.97 -0.60 35.30 -1.98 10.14 -27.12 -2.52 0.22 24.98 -28.57 -19.48 -2.56 0.20 3.21 0.56 -0.00 51.69 -3.79 0.00 0.00 -24.92 -0.00 -2.42 -2.63 0.00 0.00 1.11 -0.00 0.00 -3.32 0.52 2.03 0.00 -0.00 0.00 -5.37 -0.09 1.03 15.00 -0.00 11.35 -3.72 0.00 0.00 0.00 -0.00 10.29 -2.11 0.00 0.00 0.00 -0.00 5.15 -3.48 0.53 0.78 0.00 -0.00 0.00 -5.32 -0.09 0.32 0.00 -0.00 19.22 -4.06 0.00 0.00 0.00 -0.00 19.22 -2.55 0.00 0.00 0.00 -0.00 19.22 -3.46 0.55 -0.13 0.00 -0.00 0.00 -4.77 -0.02 -0.49 -15.00 -0.00 27.18 -3.54 0.00 0.00 0.00 -0.00 27.18 -2.46 0.00 0.00 0.00 -0.00 27.18 -3.25 0.48 -1.24 0.00 -0.00 0.00 -4.26 -0.02 -1.12 -25.00 -0.00 26.34 -2.84 0.00 0.00 0.00 -0.00 26.34 -1.79 0.00 0.00 0.00 -0.00 26.34 3.34 7.09 -0.03 6.54 -6.02 -8.43 13.10 -0.07 -0.09 -24.66 -6.71 -66.62 27.23 -0.04 -0.00 -38.41 23.21 -16.47 26.76 -0.09 0.03 -4.62 2.41 6.02 2.56 0.20 3.21 -17.30 -0.00 -58.96 3.79 0.00 0.00 47.35 -0.00 -7.30 2.63 0.00 0.00 -30.50 -0.00 0.00 3.32 0.52 2.03 0.00 -0.00 0.00 5.37 -0.09 1.03 -15.00 -0.00 7.74 3.72 0.00 0.00 0.00 -0.00 -12.86 2.11 0.00 0.00 0.00 -0.00 -6.43 3.48 0.53 0.78 0.00 -0.00 0.00 5.32 -0.09 0.32 0.00 -0.00 -47.46 4.06 0.00 0.00 0.00 -0.00 -47.46 2.55 0.00 0.00 0.00 -0.00 -47.46 3.46 0.55 -0.13 0.00 -0.00 0.00 4.77 -0.02 -0.49 15.00 -0.00 -58.80 3.54 0.00 0.00 0.00 -0.00 -58.80 2.46 0.00 0.00 0.00 -0.00 -58.80 3.25 0.48 -1.24 0.00 -0.00 0.00 4.26 -0.02 -1.12 25.00 -0.00 -40.76 2.84 0.00 0.00 0.00 -0.00 -40.76 1.79 0.00 0.00 0.00 -0.00 -40.76 
8.59 96.55 1.21 -31.21 8.11 -4.24 -9.58 -1.62 0.07 0.68 -8.94 -2.60 0.07 -41.47 -0.01 -5.47 4.76 -2.09 -0.15 -44.23 0.57 8.27 -4.23 9.78 9.69 -1.64 0.02 0.63 -8.42 4.81 0.09 -43.12 -0.16 3.84 -2.72 -0.87 -0.31 -42.02 0.35 -1.66 1.95 -0.43 0.01 16.39 0.05 4.47 6.43 -1.37 0.04 10.02 0.00 1.11 1.60 -0.39 0.10 10.44 -0.00 1.83 2.66 -0.63 0.11 10.02 -0.00 -0.01 1.74 -0.13 0.10 10.76 0.08 -0.02 1.77 -0.13 0.07 9.73 0.04 -2.16 33.53 -3.24 -3.21 7.14 -0.26 2.09 -8.84 8.93 -13.17 -0.07 -0.64 13.25 -15.74 74.29 -27.09 -0.85 -0.50 35.41 -1.47 10.27 -27.10 -2.18 0.22 24.60 -28.80 -19.13 -2.56 0.20 3.21 0.50 -0.00 51.67 -3.79 0.00 0.00 -25.04 -0.00 -2.44 -2.63 0.00 0.00 0.88 -0.00 0.00 -3.32 0.52 2.03 0.00 -0.00 0.00 -5.37 -0.09 1.03 15.00 -0.00 11.47 -3.72 0.00 0.00 0.00 -0.00 10.29 -2.11 0.00 0.00 0.00 -0.00 5.15 -3.48 0.53 0.78 0.00 -0.00 0.00 -5.32 -0.09 0.32 0.00 -0.00 19.32 -4.06 0.00 0.00 0.00 -0.00 19.32 -2.55 0.00 0.00 0.00 -0.00 19.32 -3.46 0.55 -0.13 0.00 -0.00 0.00 -4.77 -0.02 -0.49 -15.00 -0.00 27.22 -3.54 0.00 0.00 0.00 -0.00 27.22 -2.46 0.00 0.00 0.00 -0.00 27.22 -3.25 0.48 -1.24 0.00 -0.00 0.00 -4.26 -0.02 -1.12 -25.00 -0.00 26.41 -2.84 0.00 0.00 0.00 -0.00 26.41 -1.79 0.00 0.00 0.00 -0.00 26.41 3.34 7.09 -0.03 6.54 -6.03 -8.43 13.09 -0.07 -0.08 -24.62 -6.69 -66.59 27.23 -0.05 -0.00 -38.37 23.21 -16.49 26.76 -0.08 0.03 -4.60 2.56 5.95 2.56 0.20 3.21 -17.35 -0.00 -58.93 3.79 0.00 0.00 47.25 -0.00 -7.28 2.63 0.00 0.00 -30.57 -0.00 0.00 3.32 0.52 2.03 0.00 -0.00 0.00 5.37 -0.09 1.03 -15.00 -0.00 7.66 3.72 0.00 0.00 0.00 -0.00 -12.75 2.11 0.00 0.00 0.00 -0.00 -6.37 3.48 0.53 0.78 0.00 -0.00 0.00 5.32 -0.09 0.32 0.00 -0.00 -47.51 4.06 0.00 0.00 0.00 -0.00 -47.51 2.55 0.00 0.00 0.00 -0.00 -47.51 3.46 0.55 -0.13 0.00 -0.00 0.00 4.77 -0.02 -0.49 15.00 -0.00 -58.84 3.54 0.00 0.00 0.00 -0.00 -58.84 2.46 0.00 0.00 0.00 -0.00 -58.84 3.25 0.48 -1.24 0.00 -0.00 0.00 4.26 -0.02 -1.12 25.00 -0.00 -40.78 2.84 0.00 0.00 0.00 -0.00 -40.78 1.79 0.00 0.00 0.00 -0.00 -40.78 
